# xmcd CD database file
#
# Track frame offsets:
#	150
#	13118
#	26836
#	39818
#	52493
#	66243
#	78686
#	91594
#	104116
#	117187
#	130459
#	143513
#	157020
#	168875
#	183530
#
# Disc length: 2623 seconds
#
# Revision: 1
# Processed by: cddbd v1.5PL3 Copyright (c) Steve Scherf et al.
# Submitted via: CDex 1.50Beta7
#
DISCID=d10a3d0f
DTITLE=Various Artist The Blues - Louisiana Blues
DYEAR=1900
DGENRE=Blues
TTITLE0=Louisiana Blues
TTITLE1=Call It Stormy Monday But Tuesday Is Just As Bad
TTITLE2=Kind Hearted Woman Blues
TTITLE3=Mistreated Woman
TTITLE4=Someday Baby Blues
TTITLE5=Canary Bird
TTITLE6=How You Want It Done?
TTITLE7=How Long, How Long Blues
TTITLE8=I Walked All Night
TTITLE9=Please Send Me Someone To Love
TTITLE10=Thinkin' And Worryin'
TTITLE11=Ice Man
TTITLE12=Christmas Date Boogie
TTITLE13=Driftin' Blues
TTITLE14=Hoogie Boogie
EXTD=
EXTT0=
EXTT1=
EXTT2=
EXTT3=
EXTT4=
EXTT5=
EXTT6=
EXTT7=
EXTT8=
EXTT9=
EXTT10=
EXTT11=
EXTT12=
EXTT13=
EXTT14=
PLAYORDER=
